<?xml version="1.0" standalone="no"?>
<!DOCTYPE svg PUBLIC "-//W3C//DTD SVG 1.1//EN" "http://www.w3.org/Graphics/SVG/1.1/DTD/svg11.dtd">
<svg xmlns="http://www.w3.org/2000/svg">
    <metadata>Copyright (C) 2017 by original authors @ fontello.com</metadata>
    <defs>
        <font id="hotels" horiz-adv-x="1000" >
            <font-face font-family="hotels" font-weight="400" font-stretch="normal" units-per-em="1000" ascent="850" descent="-150" />
            <missing-glyph horiz-adv-x="1000" />
            <glyph glyph-name="email" unicode="&#xe800;" d="M847 441a24 24 0 0 1 23 24v87a64 64 0 0 1-64 63h-595a64 64 0 0 1-64-64v-395a72 72 0 0 1 72-72h588a64 64 0 0 1 63 64v207a24 24 0 0 1-47 0v-207a17 17 0 0 0-16-16h-588a25 25 0 0 0-25 24v377l314-265 315 265v-68a24 24 0 0 1 24-24z m-622 127h567l-284-238z" horiz-adv-x="1000" />

            <glyph glyph-name="user-login" unicode="&#xe801;" d="M770 232v-145a72 72 0 0 0-71-72h-103a24 24 0 0 0 0 47h103a25 25 0 0 1 24 25v145a162 162 0 0 1-126 157l-39 9 26 29a128 128 0 1 1-195 0l26-29-39-9a162 162 0 0 1-126-157v-145a25 25 0 0 1 24-25h217a24 24 0 0 0 0-47h-217a72 72 0 0 0-71 72v145a209 209 0 0 0 131 193 175 175 0 1 0 305 0 209 209 0 0 0 131-193z" horiz-adv-x="1000" />

            <glyph glyph-name="chat" unicode="&#xe802;" d="M845 381c0-140-117-258-279-281a24 24 0 0 0-7 47c139 20 239 118 239 234 0 131-129 238-289 238s-289-107-289-238a217 217 0 0 1 83-166l7-7 1-9c3-40-29-86-56-117 44-1 108 7 138 61l9 16 18-5a344 344 0 0 1 58-10 24 24 0 1 0-5-47 391 391 0 0 0-48 8c-41-58-109-71-160-71a310 310 0 0 0-66 7l-44 11 33 30c30 27 70 74 75 104a261 261 0 0 0-90 195c0 157 151 284 336 284s336-127 336-284z m-491-2a34 34 0 1 1 34 34 34 34 0 0 1-34-34z m155 34a34 34 0 1 1 34-34 34 34 0 0 1-34 34z m156-34a34 34 0 1 1-34-34 34 34 0 0 1 34 34z" horiz-adv-x="1000" />

            <glyph glyph-name="calendar" unicode="&#xe803;" d="M785 270a24 24 0 0 1 23 24v283a69 69 0 0 1-68 69h-480a69 69 0 0 1-68-69v-445a78 78 0 0 1 78-78h470a69 69 0 0 1 69 69v63a24 24 0 0 1-47 0v-63a22 22 0 0 0-22-22h-470a31 31 0 0 0-31 31v322h522v-160a24 24 0 0 1 24-24z m-546 231v76a22 22 0 0 0 21 22h480a22 22 0 0 0 21-22v-76z m134-169a34 34 0 1 0-34 34 34 34 0 0 0 34-34z m110 0a34 34 0 1 0-34 34 34 34 0 0 0 34-34z m110 0a34 34 0 1 0-34 34 34 34 0 0 0 34-34z m76 34a34 34 0 1 0-35-34 34 34 0 0 0 34 34z m-296-132a34 34 0 1 0-34 34 34 34 0 0 0 34-34z m110 0a34 34 0 1 0-34 34 34 34 0 0 0 34-34z m110 0a34 34 0 1 0-34 34 34 34 0 0 0 34-34z" horiz-adv-x="1000" />

            <glyph glyph-name="time" unicode="&#xe804;" d="M840 350a340 340 0 0 0-42-163 24 24 0 1 0-41 23 293 293 0 1 1-49-66 24 24 0 0 0 33-33 340 340 0 1 0 99 239z m-363 187v-229h165v47h-118v182z" horiz-adv-x="1000" />

            <glyph glyph-name="search" unicode="&#xe805;" d="M845 432a261 261 0 0 0-52-157 24 24 0 0 0-38 29 216 216 0 0 1-173 344h0a216 216 0 1 1 114-399 24 24 0 0 0 25-40 263 263 0 0 0-307 22l-226-226-33 34 226 225a263 263 0 0 0 201 431h0a263 263 0 0 0 263-263z" horiz-adv-x="1000" />

            <glyph glyph-name="rating" unicode="&#xe806;" d="M499 30l-284 313a195 195 0 0 0 282 270l3-3 4 3a195 195 0 0 0 281-272l-159-173a24 24 0 1 0-35 32l159 173a148 148 0 0 1-213 207l-37-37-37 37a148 148 0 0 1-214-205l250-275 29 32a24 24 0 0 0 35-32z" horiz-adv-x="1000" />

            <glyph glyph-name="document" unicode="&#xe807;" d="M712 213v418h-423v-561h423v45a24 24 0 1 0 47 0v-92h-517v655h517v-465a24 24 0 1 0-47 0z m-86 303h-266v-47h266z m0-135h-266v-47h266z m-266-181h266v47h-266z" horiz-adv-x="1000" />

            <glyph glyph-name="location" unicode="&#xe808;" d="M716 303l-90-131a24 24 0 0 0-39 26l90 131a215 215 0 1 1-354 0l177-258 40 58a24 24 0 1 0 39-27l-79-115-216 316a262 262 0 1 0 432 0z m-216 3a138 138 0 1 0 138 138 138 138 0 0 0-138-138z m91 138a91 91 0 1 1-91-91 91 91 0 0 1 91 91z" horiz-adv-x="1000" />

            <glyph glyph-name="log-in" unicode="&#xe809;" d="M786 512v89h-423v-222h228l-82 126 40 25 120-185-121-165-38 27 91 125h-239v-233h424v310a24 24 0 0 0 47 0v-357h-518v280h-148v47h148v269h518v-136a24 24 0 0 0-47 0z" horiz-adv-x="1000" />

            <glyph glyph-name="log-out" unicode="&#xe80a;" d="M804 512v89h-423v-234h269v-47h-269v-221h423v310a24 24 0 0 0 47 0v-357h-517v268h-107l81-126-39-26-120 186 120 165 38-27-90-125h117v281h518v-136a24 24 0 0 0-48 0z" horiz-adv-x="1000" />

            <glyph glyph-name="global" unicode="&#xe80b;" d="M500 685a335 335 0 1 1 285-511 24 24 0 0 1-40 25 286 286 0 0 0-174-128 408 408 0 0 1 110 256h106a288 288 0 0 0-8-48 24 24 0 0 1 45-12 335 335 0 0 1-324 418z m287-311h-106a408 408 0 0 1-109 255 289 289 0 0 0 215-255z m-310-284a368 368 0 0 0-111 237h111z m-111 284a369 369 0 0 0 111 236v-236z m158 236a369 369 0 0 0 110-236h-110z m-95 19a408 408 0 0 1-110-255h-106a289 289 0 0 0 216 255z m-216-302h106a408 408 0 0 1 109-256 289 289 0 0 0-215 256z m311-237v237h110a369 369 0 0 0-110-237z" horiz-adv-x="1000" />

            <glyph glyph-name="settings" unicode="&#xe80c;" d="M500 474a124 124 0 1 1 123-124 124 124 0 0 1-123 124z m0-200a77 77 0 1 0 76 76 77 77 0 0 0-76-76z m320 54v44h-86l-5 24c0 2-1 4-1 7l-1 4c0 2-1 4-2 7l-1 4c-1 2-1 4-2 6l-2 5-2 5-4 10 21 10-21-9-3 5-1 4-4 7-2 3-3 7-3 3-4 6-3 4-9 16 60 60-32 31-60-60-20 13-7 5-3 2-6 3-4 2-6 3-4 2-6 3-5 2-5 2-6 2-4 2-7 2-4 1-7 2-3 1-8 2-1 0h-22v90h-44v-90l-24 0-7-2-4-1-7-2-4-1-6-2-5-2-5-2-6-2-4-2-6-3-4-2-6-3-4-2-7-4-3-2-6-4-2-1-15-15-63 63-31-31 63-63-16-17-4-6-2-4-4-6-2-3-3-7-2-4-3-5-2-5-2-5-2-6-1-4c-1-3-2-5-3-7l-1-4c-1-2-1-5-2-7l-1-4c0-2-1-5-1-7l-1-6-5-17h-85v-45h81l8-16 2-7c0-3 1-5 1-8l1-4c1-2 1-4 2-7l1-4c1-2 1-4 2-6l2-5 2-5 2-6 2-4 3-6 2-4 3-7 2-3 3-7 2-3 4-6 3-5 10-16-59-59 31-32 61 61 19-13 6-4 3-2 7-4 4-2 6-3 4-2 6-2 4-2 5-2 6-3 5-1 6-2 4-1 7-2 4-1 8-2 23-4v-86h44v85l24 5 7 1 4 1 7 2 4 1 6 2 5 2 5 2 6 2 4 2 6 3 4 2 6 3 3 1 7 5 3 2 7 4 19 13 61-61 31 32-61 61 12 16a24 24 0 0 0 37 1l79-78-98-98-67 67-6-4-5-2-7-4-5-3-7-3-6-2-5-2-8-3-4-2-9-3-4-1-8-2v-94h-138v94l-8 2-4 1-7 2-6 3-7 2-7 3-5 2-7 3-4 2-1 0-7 4-4 2-7 4-67-67-98 98 67 67-4 7-2 4c-2 3-3 5-4 8l-3 5-3 6-2 6-3 6c-1 3-1 5-2 7l-2 5c-1 3-2 6-3 9l-1 3c-1 4-1 6-2 9h-94v138h94c1 3 1 5 2 7l1 5c1 3 2 5 3 8l2 5c1 3 1 5 2 7l3 7 2 6 4 6 2 5 4 8 2 4 4 7-67 67 98 97 66-67 7 4 5 3 6 3 6 3 7 3 6 3 6 2 7 3 4 1 9 3 5 1 7 2v94h138v-94l7-2 5-1 7-2 6-2 7-3 6-2 6-3 7-3 5-3 8-3 4-3 7-4 66 67 98-98-67-66 4-7 3-4c1-3 2-5 3-8l3-5 3-6 3-6 2-6c1-3 2-5 3-7l1-5c1-3 2-6 3-9l2-5c0-2 1-4 2-7h94v-138h-101a24 24 0 0 0-37 23l5 24z" horiz-adv-x="1000" />

            <glyph glyph-name="cloud-backup" unicode="&#xe80d;" d="M746 39h-492a179 179 0 0 0-67 346c0 4 0 8 0 11a264 264 0 0 0 485 145 140 140 0 0 0 44 7 142 142 0 0 0 142-142 140 140 0 0 0-7-42 180 180 0 0 0 75-146 24 24 0 1 0-47 0 133 133 0 0 1-68 116l-20 10 10 20a94 94 0 0 1 10 42 95 95 0 0 1-95 95 94 94 0 0 1-43-11l-20-10-11 20a217 217 0 0 1-407-129l3-20-20-5a132 132 0 0 1 35-260h493a132 132 0 0 1 110 59 24 24 0 1 0 39-27 179 179 0 0 0-149-79z" horiz-adv-x="1000" />

            <glyph glyph-name="security" unicode="&#xe80e;" d="M743 176a24 24 0 0 1 23 24v198h-84v118a182 182 0 1 1-364 0v-118h-84v-397h532v93a24 24 0 1 1-47 0v-46h-438v303h438v-151a24 24 0 0 1 24-24z m-378 222v118a135 135 0 1 0 270 0v-118z" horiz-adv-x="1000" />

            <glyph glyph-name="user" unicode="&#xe80f;" d="M352 602a293 293 0 0 0 441-243 24 24 0 1 1 47 2 340 340 0 1 1-11-94 24 24 0 1 1-45 12 292 292 0 0 0-59-116v63a167 167 0 0 1-99 152 141 141 0 1 1-251 0 167 167 0 0 1-100-152v-63a296 296 0 0 0-27 39 293 293 0 0 0 104 400z m64-260a24 24 0 0 1 13 38 94 94 0 1 0 142 0 24 24 0 0 1 13-39 120 120 0 0 0 94-116v-108a298 298 0 0 0-29-20 293 293 0 0 0-327 20v109a120 120 0 0 0 94 116z" horiz-adv-x="1000" />

            <glyph glyph-name="quote-request" unicode="&#xe810;" d="M563 413h-266v47h266z m0-88h-266v-47h266z m-266-182h266v47h-266z m399 295v-282a24 24 0 0 0-47 0v282a149 149 0 0 0-125 136h-299v-561h424v45a24 24 0 0 0 47 0v-92h-518v655h350a149 149 0 1 0 168-183z m79 147a102 102 0 1 1-102-102 102 102 0 0 1 102 102z m-53 24h-26v25a24 24 0 0 1-47 0v-25h-26a24 24 0 0 1 0-48h26v-25a24 24 0 0 1 47 0v26h26a24 24 0 0 1 0 47z" horiz-adv-x="1000" />

            <glyph glyph-name="dashboard" unicode="&#xe811;" d="M500 148a90 90 0 0 1 81 129l-60 126a24 24 0 0 1-42 0l-60-126a90 90 0 0 1 81-129z m-39 109l39 82 39-82a43 43 0 1 0-78 0z m39 248a33 33 0 1 0 33 33 33 33 0 0 0-33-33z m-94 17a33 33 0 1 0-45 12 33 33 0 0 0 45-12z m191-39a33 33 0 0 0 3 47h0a33 33 0 0 0 5 4l0 0h0a33 33 0 0 0 5 2l1 0a33 33 0 0 0 5 1l2 0h7l2 0 4-1 2 0a33 33 0 0 0 5-2h0l0 0a33 33 0 0 0 5-4l0 0a33 33 0 0 0 2-47h0a33 33 0 0 0-4-4l-1 0a33 33 0 0 0-3-2l-1-1-2-1a33 33 0 0 0-4-1l-2 0-4-1h-6l-4 1-2 0a33 33 0 0 0-5 1l-1 1-2 1a33 33 0 0 0-3 2l0 0a33 33 0 0 0-5 5z m-282-51a33 33 0 1 0-45 12 33 33 0 0 0 46-12z m412 12a33 33 0 1 0-45-12 33 33 0 0 0 46 12z m120-232a24 24 0 0 0-46 10 309 309 0 0 1-266 378 309 309 0 0 1-294-475 61 61 0 0 1 52-28h414a61 61 0 0 1 52 27 24 24 0 1 0 39-25 108 108 0 0 0-91-49h-414a108 108 0 0 0-91 49 356 356 0 1 0 651 241 360 360 0 0 0-6-128z" horiz-adv-x="1000" />

            <glyph glyph-name="list" unicode="&#xe812;" d="M712 213v418h-423v-561h423v45a24 24 0 1 0 47 0v-92h-517v655h517v-465a24 24 0 1 0-47 0z m-66 342h-177v-47h177z m-271 10a33 33 0 1 1 34-33 33 33 0 0 1-34 33z m271-126h-177v-47h177z m-271 10a33 33 0 1 1 34-33 33 33 0 0 1-34 33z m271-126h-177v-47h177z m-271 10a33 33 0 1 1 34-33 33 33 0 0 1-34 33z m94-172h177v47h-177z m-94 56a33 33 0 1 1 34-33 33 33 0 0 1-34 34z" horiz-adv-x="1000" />

            <glyph glyph-name="view" unicode="&#xe813;" d="M852 288a26 26 0 0 0-41 32 50 50 0 0 1 0 60c-45 58-142 156-293 164a347 347 0 0 1-36 0c-151-7-248-106-292-163a50 50 0 0 1 0-61c44-58 141-156 291-164a354 354 0 0 1 37 0 369 369 0 0 1 226 93 26 26 0 1 0 34-39 420 420 0 0 0-257-106c-7 0-13 0-21 0s-15 0-21 0c-172 9-281 119-331 184a102 102 0 0 0 0 124c50 65 159 175 331 184a401 401 0 0 0 42 0c172-9 281-119 331-184a102 102 0 0 0 0-124z m-352 238a176 176 0 1 0-176-176 176 176 0 0 0 176 176z m0-47a129 129 0 1 1 129-129 129 129 0 0 1-129 129z m0-55a74 74 0 1 0-74-74 74 74 0 0 0 74 74z m7-18a24 24 0 1 1 23-24 24 24 0 0 1-23 24z" horiz-adv-x="1000" />

            <glyph glyph-name="quote" unicode="&#xe814;" d="M840 350a340 340 0 0 0-42-163 24 24 0 1 0-41 23 293 293 0 1 1-49-66 24 24 0 0 0 33-33 340 340 0 1 0 99 239z m-266 63a24 24 0 0 1 24 23v6a98 98 0 0 1-196 0v-82a24 24 0 0 1 0-46v-60a71 71 0 0 1 71-70h101a24 24 0 0 1 0 47h-101a24 24 0 0 0-24 23v59h86a24 24 0 0 1 0 47h-86v82a51 51 0 0 0 102 0v-6a24 24 0 0 1 23-23z" horiz-adv-x="1000" />

            <glyph glyph-name="edit" unicode="&#xe815;" d="M767 663l-47 36a90 90 0 0 1-127-17l-23-30h0l-337-435a24 24 0 0 1-2-4l0-2a24 24 0 0 1-2-4s0 0 0-1l-30-196a24 24 0 0 1 32-26l183 80 0 0a24 24 0 0 1 5 2l0 0a24 24 0 0 1 4 4l55 73a24 24 0 1 1-37 28l-41-53-58 45-57 44 308 398 39-30-282-365a24 24 0 0 1 38-28l282 365 39-30-200-258a24 24 0 1 1 37-29l214 276 23 30a90 90 0 0 1-16 127z m-136-9a43 43 0 0 0 60 8l48-36a43 43 0 0 0 7-61l-9-11-28 22-86 67z m-272-563l-67-29-33 26 12 72z" horiz-adv-x="1000" />

            <glyph glyph-name="vehicle" unicode="&#xe816;" d="M829 538h-156v93a24 24 0 0 1-23 23h-600a24 24 0 0 1-23-23v-490a24 24 0 0 1 23-24h41a113 113 0 0 1 225 0h334l2 0 3 0h35a113 113 0 0 1 226 0h35a24 24 0 0 1 0 47h-45a113 113 0 0 1-207 0h-21v327h151a97 97 0 0 0 73-33h-175a24 24 0 0 1-23-23v-98a24 24 0 0 1 23-24h199v-69a24 24 0 0 1 47 0v150a145 145 0 0 1-144 144z m-27-352a66 66 0 1 0-65-66 66 66 0 0 0 65 66z m-599-132a66 66 0 1 0 66 66 66 66 0 0 0-66-66z m424 110h-320a113 113 0 0 1-207 0h-26v443h552z m124 196v51h155a21 21 0 0 0 20-20v-31z" horiz-adv-x="1000" />

            <glyph glyph-name="reload" unicode="&#xe817;" d="M741 144a24 24 0 0 0 0-33 340 340 0 0 0-581 239 341 341 0 0 0 19 110l-78-35a24 24 0 1 0-19 42l136 63a24 24 0 0 0 31-12l62-136a24 24 0 0 0-42-20l-43 92a293 293 0 0 1 274-397 291 291 0 0 1 208 87 24 24 0 0 0 33 0z m188 120a24 24 0 0 1-31 12l-78-35a340 340 0 0 1-320 449 337 337 0 0 1-241-101 24 24 0 1 1 33-33 293 293 0 0 0 501-206 294 294 0 0 0-19-104l-42 92a24 24 0 0 1-43-20l62-136a24 24 0 0 1 32-12l136 63a24 24 0 0 1 11 31z" horiz-adv-x="1000" />

            <glyph glyph-name="waste-facility" unicode="&#xe818;" d="M697 211v471h-394v-663h277v86a24 24 0 0 0 47 0v-86h70v85a24 24 0 0 0 47 0v-132h-488v756h488v-517a24 24 0 0 0-47 0z m-313 26a34 34 0 1 1 34-35 34 34 0 0 1-34 35z m110 0a34 34 0 1 1 34-35 34 34 0 0 1-34 35z m110 0a34 34 0 1 1 34-35 34 34 0 0 1-34 35z m-220-98a34 34 0 1 1 34-34 34 34 0 0 1-34 34z m0 195a34 34 0 1 1 34-34 34 34 0 0 1-34 34z m110 0a34 34 0 1 1 34-34 34 34 0 0 1-34 34z m110 0a34 34 0 1 1 34-34 34 34 0 0 1-34 34z m-220 98a34 34 0 1 1 35-34 34 34 0 0 1-35 34z m110 0a34 34 0 1 1 34-34 34 34 0 0 1-34 34z m110 0a34 34 0 1 1 34-34 34 34 0 0 1-34 34z m-219 97a34 34 0 1 1 34-34 34 34 0 0 1-35 34z m109 0a34 34 0 1 1 35-34 34 34 0 0 1-35 34z m110 0a34 34 0 1 1 34-34 34 34 0 0 1-34 34z m-220 98a34 34 0 1 1 34-34 34 34 0 0 1-34 34z m110 0a34 34 0 1 1 34-34 34 34 0 0 1-34 34z m110 0a34 34 0 1 1 34-34 34 34 0 0 1-34 34z m-110-488a34 34 0 1 1 34-34 34 34 0 0 1-34 34z" horiz-adv-x="1000" />

            <glyph glyph-name="delete" unicode="&#xe819;" d="M776 631h-164a108 108 0 0 1-106 85h-7a108 108 0 0 1-106-85h-170a24 24 0 0 1-23-23v-103a24 24 0 0 1 23-23h24v-400a97 97 0 0 1 97-97h315a97 97 0 0 1 97 97 24 24 0 0 1-47 0 50 50 0 0 0-50-51h-315a50 50 0 0 0-50 51v399h414v-294a24 24 0 0 1 47 0v294h21a24 24 0 0 1 24 24v103a24 24 0 0 1-24 23z m-276 38h7a61 61 0 0 0 56-38h-119a61 61 0 0 0 56 38z m-229-140h-24v55h506v-55h-482z m131-111a24 24 0 0 0 23-24v-250a24 24 0 0 0-47 0v250a24 24 0 0 0 23 24z m98 0a24 24 0 0 0 24-24v-250a24 24 0 0 0-47 0v250a24 24 0 0 0 23 24z m99 0a24 24 0 0 0 24-24v-250a24 24 0 0 0-47 0v250a24 24 0 0 0 23 24z" horiz-adv-x="1000" />

            <glyph glyph-name="done" unicode="&#xe81a;" d="M839 318a340 340 0 0 0-338-308q-17 0-34 2a340 340 0 1 0 368 401 24 24 0 1 0-46-9 293 293 0 1 1 4-82 24 24 0 1 0 47-4z m-179 162l-219-218-111 111a24 24 0 0 1-33-33l128-128a24 24 0 0 1 33 0l235 235a24 24 0 0 1-33 33z" horiz-adv-x="1000" />

            <glyph glyph-name="cancel" unicode="&#xe81b;" d="M839 318a339 339 0 1 0-4 95 24 24 0 1 0-46-9 293 293 0 1 1 4-82 24 24 0 0 0 47-5z m-205 162a24 24 0 0 1-33 0l-101-100-101 101a24 24 0 0 1-33-34l101-101-101-100a24 24 0 1 1 33-34l101 101 101-101a24 24 0 0 1 33 34l-101 100 101 101a24 24 0 0 1 0 33z" horiz-adv-x="1000" />

            <glyph glyph-name="add" unicode="&#xe81c;" d="M838 316a340 340 0 0 0-57-158 24 24 0 0 0-39 27 293 293 0 1 1-55-60 24 24 0 0 0 30-37 337 337 0 0 0-216-78q-17 0-35 2a340 340 0 1 0 372 304z m-341-158a24 24 0 0 1 24 24v142h142a24 24 0 0 1 0 47h-143v143a24 24 0 0 1-47 0v-143h-143a24 24 0 0 1 0-47h143v-142a24 24 0 0 1 24-24z" horiz-adv-x="1000" />

            <glyph glyph-name="hotels" unicode="&#xe81d;" d="M452 304l32-63-65-130a118 118 0 0 0-106-65h0a118 118 0 0 0-100 56 120 120 0 0 0-9 17 118 118 0 0 0 4 99l100 199 47 94a148 148 0 0 1 14-41l15-30-125-248a61 61 0 0 1 2-59 62 62 0 0 1 7-10 61 61 0 0 1 93 4 62 62 0 0 1 7 10l67 133h0z m48 256a26 26 0 1 1 26-26 26 26 0 0 1-26 26z m292-342l-147 293a148 148 0 0 0-14-41l-15-30 125-248a61 61 0 0 0-109-55l-132 263h0l-54 108a60 60 0 0 0 0 55l1 3 1 1 1 2 1 2 1 1 1 2 0 0a61 61 0 0 0 5 5l0 0 2 2 1 1 1 1 2 1 2 1 2 2 1 0 2 2 1 0 3 2 1 0 2 0 2 0h0l2 1 1 0 3 0h0l1 0 3 0 1 0h16l3 0 1 0 3 0h0l1 0 2 0 2 0 2-1 2 0 2-1 1-1 3-1 1-1 2-1 1-1 2-1 2-1 2-1 1-1 1-1 2-2h0a60 60 0 0 0 5-6h0l2-2 1-1 1-2 1-1 0 0 1-2 1-2h0a60 60 0 0 0 0-55l-38-76 32-63 58 114a118 118 0 0 1-5 115q-2 4-5 7l0 1-2 2 0 1-2 3-1 1-3 2 0 1-2 2-1 1-2 2-1 1-2 2 0 0a117 117 0 0 1-33 21h0a118 118 0 0 1-37 9h-19l-3 0h-1l-3 0h0l-1 0h0l-2 0h0l-1 0h0l-2 0h-1l-1 0h0l-2 0-1 0-1 0h0l-2 0-1 0h-2l-3-1h0l-1 0-3-1-2 0-3-1-1 0-4-2-1 0-3-2-1 0 0 0 0 0-1 0-1-1-1 0h0l0 0-2-1-1 0h0l0 0-2-1 0 0 0 0-1 0-1-1 0 0 0 0-1-1-2-1h0l0 0-1-1-1-1h0l-1 0-1-1 0 0h0a118 118 0 0 1-9-9l0 0-7-13 0 0-3-3 0 0-2-2 0 0-2-3 0 0-2-3 0 0v0l0 0-1-3h0l0 0h0l-1-3h0l-1-1h0l0 0 0-1-2-3h0v0l0-1h0l-2-5 0-1-2-4h0l-2-5v0q0-2-1-5h0a118 118 0 0 1 8-85l6-10 16-32h0l160-334a118 118 0 1 1 212 106z" horiz-adv-x="1000" />

            <glyph glyph-name="instagram" unicode="&#xe81e;" d="M500 481h0a131 131 0 0 1-131-131 131 131 0 0 1 131-131 131 131 0 0 1 0 262z m57-188a80 80 0 0 0-57-23 80 80 0 0 0-80 80 80 80 0 0 0 80 80h0a80 80 0 0 0 80-80 79 79 0 0 0-23-57z m175 23v154a112 112 0 0 1-112 112h-240a112 112 0 0 1-112-112v-240a112 112 0 0 1 112-112h240a112 112 0 0 1 112 112 25 25 0 1 0 51 0 163 163 0 0 0-163-163h-240a163 163 0 0 0-163 163v240a163 163 0 0 0 163 163h240a163 163 0 0 0 163-163v-154a25 25 0 0 0-51 0z m-33 175a54 54 0 1 1-54-55 54 54 0 0 1 54 55z m-58 0a4 4 0 1 0 4-4 4 4 0 0 0-4 4z" horiz-adv-x="1000" />

            <glyph glyph-name="facebook" unicode="&#xe81f;" d="M575 517v-46h98a25 25 0 0 0 25-25v-102a25 25 0 0 0-25-25h-124a25 25 0 0 0 0 51h99v51h-99a25 25 0 0 0-25 25v71c0 33 23 61 50 61h74v58h-74c-66 0-115-56-115-130v-60a25 25 0 0 0-26-26h-80v-51h80a25 25 0 0 0 26-25v-280h66v191a25 25 0 0 0 50 0v-216a25 25 0 0 0-25-26h-117a25 25 0 0 0-25 26v280h-81a25 25 0 0 0-25 25v102a25 25 0 0 0 25 25h81v35c0 101 73 180 166 180h99a25 25 0 0 0 25-25v-108a25 25 0 0 0-25-25h-95a18 18 0 0 1-3-11z" horiz-adv-x="1000" />

            <glyph glyph-name="twitter" unicode="&#xe820;" d="M841 511a278 278 0 0 0-82-88 345 345 0 0 0-24-107c-4-13-10-25-15-37a25 25 0 0 0-46 22c5 10 10 21 14 32a282 282 0 0 1 20 105 25 25 0 0 0 14 22 181 181 0 0 1 42 33c-14-1-27-2-35-2a25 25 0 0 0-20 42 226 226 0 0 1 14 23 255 255 0 0 0-27-5 42 42 0 0 0-35 15 29 29 0 0 1-3 2 84 84 0 0 1-23 12 93 93 0 0 1-51 4 92 92 0 0 1-59-42 140 140 0 0 1-16-104 25 25 0 0 0-6-22 25 25 0 0 0-20-9 384 384 0 0 0-249 109 101 101 0 0 1 44-99 25 25 0 0 0-15-46 152 152 0 0 0-24 3 101 101 0 0 1 74-62 25 25 0 0 0 2-49 149 149 0 0 0-21-5 100 100 0 0 1 75-35 25 25 0 0 0 15-45 277 277 0 0 0-102-51 332 332 0 0 1 93-13 322 322 0 0 1 261 125 25 25 0 1 0 40-31 371 371 0 0 0-301-144 382 382 0 0 0-207 60 25 25 0 0 0 17 47 231 231 0 0 1 118 17 151 151 0 0 0-76 89 25 25 0 0 0 3 22 152 152 0 0 0-49 112v1a25 25 0 0 0 13 22l3 2a152 152 0 0 0 6 141 25 25 0 0 0 41 3 334 334 0 0 1 211-119 187 187 0 0 0 27 108 141 141 0 0 0 92 64 143 143 0 0 0 79-6 134 134 0 0 0 35-19 75 75 0 0 0 7-6 150 150 0 0 1 35 9l39 16a25 25 0 0 0 31-36c-4-8-15-27-25-46l41 3a25 25 0 0 0 25-36z" horiz-adv-x="1000" />

            <glyph glyph-name="first" unicode="&#xe821;" d="M351 574v-448a24 24 0 0 0-47 0v448a24 24 0 0 0 47 0z m124-224l214 207a24 24 0 0 1-33 34l-231-224a24 24 0 0 1 0-34l231-224a24 24 0 0 1 33 34z" horiz-adv-x="1000" />

            <glyph glyph-name="previous" unicode="&#xe822;" d="M616 102a24 24 0 0 0-16 7l-232 224a24 24 0 0 0 0 33l232 225a24 24 0 0 0 32-33l-214-208 214-207a24 24 0 0 0-16-41z" horiz-adv-x="1000" />

            <glyph glyph-name="next" unicode="&#xe823;" d="M639 350a24 24 0 0 0-7-17l-231-224a24 24 0 1 0-33 34l214 207-214 207a24 24 0 0 0 33 34l231-224a24 24 0 0 0 7-17z" horiz-adv-x="1000" />

            <glyph glyph-name="last" unicode="&#xe824;" d="M673 102a24 24 0 0 0-24 24v448a24 24 0 0 0 47 0v-448a24 24 0 0 0-23-24z m-330 7l232 224a24 24 0 0 1 0 33l-231 225a24 24 0 0 1-33-33l214-208-214-207a24 24 0 0 1 33-34z" horiz-adv-x="1000" />

            <glyph glyph-name="close" unicode="&#xe825;" d="M756 128a24 24 0 1 0-34-34l-222 223-222-223a24 24 0 0 0-34 34l223 222-223 222a24 24 0 0 0 34 34l222-223 222 223a24 24 0 0 0 34-34l-223-222z" horiz-adv-x="1000" />

            <glyph glyph-name="accept" unicode="&#xe826;" d="M419 148a24 24 0 0 0-17 40l357 357a24 24 0 0 0 33-33l-357-357a24 24 0 0 0-16-7z m0 0a24 24 0 0 0-17 7l-194 194a24 24 0 0 0 34 33l193-194a24 24 0 0 0-16-40z" horiz-adv-x="1000" />

            <glyph glyph-name="menu" unicode="&#xe827;" d="M501 10q-17 0-35 2a340 340 0 1 0 315 146 24 24 0 0 0-39 27 293 293 0 1 1-55-60 24 24 0 1 0 30-37 337 337 0 0 0-216-78z m147 462a24 24 0 0 1-23 24h-250a24 24 0 0 1 0-47h250a24 24 0 0 1 23 23z m0-122a24 24 0 0 1-23 24h-250a24 24 0 0 1 0-47h250a24 24 0 0 1 23 23z m0-122a24 24 0 0 1-23 23h-250a24 24 0 0 1 0-47h250a24 24 0 0 1 23 24z" horiz-adv-x="1000" />

            <glyph glyph-name="home" unicode="&#xe828;" d="M759 28h-517v395l258 249 259-249v-159a24 24 0 1 0-47 0v139l-212 204-211-204v-328h423v87a24 24 0 1 0 47 0z" horiz-adv-x="1000" />
        </font>
</defs>
</svg>
